<svg xmlns="http://www.w3.org/2000/svg" viewBox="0 0 21 21"><path d="M0 0h7v7h-7zM10 0h2v2h1v1h-1v1h1v6h-1v-2h-1v-1h1v-2h-1v-3h-1v3h-1v3h-1v-6h1v-1h1zM14 0h7v7h-7zM1 1v5h5v-5zM15 1v5h5v-5zM2 2h3v3h-3zM16 2h3v3h-3zM10 6h1v1h-1zM0 8h1v1h-1zM2 8h5v1h-2v1h3v-1h1v-1h2v2h-2v1h-5v-2h-1v1h-1zM14 8h5v3h1v1h-3v-1h1v-2h-4zM20 9h1v1h-1zM0 10h1v1h-1zM11 10h1v1h-1zM13 10h1v3h-1zM2 11h2v2h-4v-1h2zM15 11h1v2h2v1h-2v1h-2v-1h1zM5 12h3v1h-3zM9 12h3v1h1v5h-1v-2h-2v-1h2v-1h-1v-1h-1v2h-1v-1h-1v-1h1zM20 12h1v1h-1zM0 14h7v7h-7zM18 14h2v1h-1v1h-2v-1h1zM1 15v5h5v-5zM8 15h1v3h1v1h-2zM20 15h1v2h-1zM2 16h3v3h-3zM14 16h1v1h-1zM10 17h1v1h-1zM15 17h3v2h1v1h-1v1h-1v-1h-2v-1h2v-1h-2zM11 18h1v1h-1zM13 18h1v1h-1zM8 20h2v1h-2zM11 20h1v1h-1zM19 20h1v1h-1z"/></svg>