<svg xmlns="http://www.w3.org/2000/svg" viewBox="0 0 21 21"><path d="M0 0h7v7h-7zM12 0h1v1h-1zM14 0h7v7h-7zM1 1v5h5v-5zM8 1h1v1h-1zM15 1v5h5v-5zM2 2h3v3h-3zM9 2h1v1h-1zM11 2h1v1h-1zM16 2h3v3h-3zM10 3h1v1h-1zM12 3h1v2h-1v1h-1v-2h1zM8 4h2v2h-1v-1h-1zM8 6h1v1h-1zM10 6h1v2h-1zM12 6h1v1h-1zM0 8h1v1h-1zM2 8h1v1h1v1h3v1h-3v2h-2v-1h1v-1h-1zM4 8h1v1h-1zM6 8h1v1h-1zM12 8h1v1h-1zM16 8h1v1h-1zM19 8h1v1h-1zM7 9h1v1h-1zM9 9h3v2h2v1h1v1h-1v1h3v1h-1v1h2v2h-1v-1h-1v1h-1v-1h-1v-1h1v-1h-3v-1h1v-2h-1v1h-1v-2h-1v-1h-1zM13 9h3v1h-3zM20 9h1v1h-1zM0 10h1v2h-1zM17 10h1v1h2v1h-1v4h-1v-4h-1zM15 11h1v1h-1zM6 12h1v1h-1zM16 12h1v1h-1zM20 12h1v5h-1v1h-1v-2h1zM8 13h1v1h-1zM10 13h1v1h-1zM0 14h7v7h-7zM9 14h1v2h-1zM1 15v5h5v-5zM2 16h3v3h-3zM8 16h1v1h-1zM12 16h1v1h-1zM10 17h2v2h2v1h-2v1h-4v-1h2v-1h1v-1h-1zM13 17h1v1h-1zM8 18h2v1h-2zM14 18h1v1h-1zM20 18h1v3h-1v-1h-1v-1h1zM15 19h2v2h-1v-1h-1zM14 20h1v1h-1z"/></svg>